<mxfile host="app.diagrams.net" modified="2024-03-22T23:06:24.088Z" agent="Mozilla/5.0 (Windows NT 10.0; Win64; x64) AppleWebKit/537.36 (KHTML, like Gecko) Chrome/120.0.0.0 YaBrowser/24.1.0.0 Safari/537.36" etag="8_Y0aQUe_kwNILH32wnV" version="24.0.5" type="github">
  <diagram name="Страница — 1" id="ayewbeGo_WwrBOZi4rXz">
    <mxGraphModel dx="912" dy="2916" grid="1" gridSize="10" guides="1" tooltips="1" connect="1" arrows="1" fold="1" page="1" pageScale="1" pageWidth="583" pageHeight="827" math="0" shadow="0">
      <root>
        <mxCell id="0" />
        <mxCell id="1" parent="0" />
        <mxCell id="pfXIOTyPjtkjjVaiKZZA-14" style="edgeStyle=orthogonalEdgeStyle;rounded=0;orthogonalLoop=1;jettySize=auto;html=1;exitX=0.75;exitY=1;exitDx=0;exitDy=0;entryX=0;entryY=0.25;entryDx=0;entryDy=0;" parent="1" source="pfXIOTyPjtkjjVaiKZZA-1" target="pfXIOTyPjtkjjVaiKZZA-2" edge="1">
          <mxGeometry relative="1" as="geometry" />
        </mxCell>
        <mxCell id="pfXIOTyPjtkjjVaiKZZA-1" value="&lt;font style=&quot;font-size: 9px;&quot;&gt;Экран загрузки&lt;/font&gt;" style="rounded=1;whiteSpace=wrap;html=1;" parent="1" vertex="1">
          <mxGeometry x="10" y="-2330" width="70" height="20" as="geometry" />
        </mxCell>
        <mxCell id="pfXIOTyPjtkjjVaiKZZA-55" style="edgeStyle=orthogonalEdgeStyle;rounded=0;orthogonalLoop=1;jettySize=auto;html=1;exitX=1;exitY=0.75;exitDx=0;exitDy=0;entryX=0.5;entryY=0;entryDx=0;entryDy=0;" parent="1" source="pfXIOTyPjtkjjVaiKZZA-2" target="pfXIOTyPjtkjjVaiKZZA-38" edge="1">
          <mxGeometry relative="1" as="geometry" />
        </mxCell>
        <mxCell id="pfXIOTyPjtkjjVaiKZZA-56" style="edgeStyle=orthogonalEdgeStyle;rounded=0;orthogonalLoop=1;jettySize=auto;html=1;exitX=1;exitY=1;exitDx=0;exitDy=0;entryX=0;entryY=0.75;entryDx=0;entryDy=0;" parent="1" source="pfXIOTyPjtkjjVaiKZZA-2" target="pfXIOTyPjtkjjVaiKZZA-42" edge="1">
          <mxGeometry relative="1" as="geometry">
            <Array as="points">
              <mxPoint x="200" y="-2240" />
              <mxPoint x="200" y="-2107" />
            </Array>
          </mxGeometry>
        </mxCell>
        <mxCell id="pfXIOTyPjtkjjVaiKZZA-57" style="edgeStyle=orthogonalEdgeStyle;rounded=0;orthogonalLoop=1;jettySize=auto;html=1;exitX=1;exitY=0.5;exitDx=0;exitDy=0;entryX=0;entryY=0.5;entryDx=0;entryDy=0;" parent="1" source="pfXIOTyPjtkjjVaiKZZA-2" target="pfXIOTyPjtkjjVaiKZZA-37" edge="1">
          <mxGeometry relative="1" as="geometry" />
        </mxCell>
        <mxCell id="pfXIOTyPjtkjjVaiKZZA-58" style="edgeStyle=orthogonalEdgeStyle;rounded=0;orthogonalLoop=1;jettySize=auto;html=1;exitX=1;exitY=0.25;exitDx=0;exitDy=0;entryX=0;entryY=0.25;entryDx=0;entryDy=0;" parent="1" source="pfXIOTyPjtkjjVaiKZZA-2" target="pfXIOTyPjtkjjVaiKZZA-17" edge="1">
          <mxGeometry relative="1" as="geometry" />
        </mxCell>
        <mxCell id="Wh4VKYTvQoOxj8cxY6x3-6" style="edgeStyle=orthogonalEdgeStyle;rounded=0;orthogonalLoop=1;jettySize=auto;html=1;exitX=0;exitY=0.5;exitDx=0;exitDy=0;entryX=0.5;entryY=0;entryDx=0;entryDy=0;" edge="1" parent="1" source="pfXIOTyPjtkjjVaiKZZA-2" target="pfXIOTyPjtkjjVaiKZZA-87">
          <mxGeometry relative="1" as="geometry" />
        </mxCell>
        <mxCell id="pfXIOTyPjtkjjVaiKZZA-2" value="&lt;font size=&quot;1&quot;&gt;Главный экран&lt;/font&gt;" style="rounded=1;whiteSpace=wrap;html=1;fillColor=#e1d5e7;strokeColor=#9673a6;" parent="1" vertex="1">
          <mxGeometry x="110" y="-2290" width="100" height="50" as="geometry" />
        </mxCell>
        <mxCell id="pfXIOTyPjtkjjVaiKZZA-62" style="edgeStyle=orthogonalEdgeStyle;rounded=0;orthogonalLoop=1;jettySize=auto;html=1;exitX=0.25;exitY=1;exitDx=0;exitDy=0;entryX=0.5;entryY=0;entryDx=0;entryDy=0;" parent="1" source="pfXIOTyPjtkjjVaiKZZA-17" target="pfXIOTyPjtkjjVaiKZZA-32" edge="1">
          <mxGeometry relative="1" as="geometry" />
        </mxCell>
        <mxCell id="pfXIOTyPjtkjjVaiKZZA-17" value="&lt;font size=&quot;1&quot;&gt;Аккаунт&lt;/font&gt;" style="rounded=1;whiteSpace=wrap;html=1;fillColor=#e1d5e7;strokeColor=#9673a6;" parent="1" vertex="1">
          <mxGeometry x="540" y="-2330" width="80" height="50" as="geometry" />
        </mxCell>
        <mxCell id="Wh4VKYTvQoOxj8cxY6x3-7" style="edgeStyle=orthogonalEdgeStyle;rounded=0;orthogonalLoop=1;jettySize=auto;html=1;exitX=0.75;exitY=1;exitDx=0;exitDy=0;entryX=0.25;entryY=0;entryDx=0;entryDy=0;" edge="1" parent="1" source="pfXIOTyPjtkjjVaiKZZA-18" target="pfXIOTyPjtkjjVaiKZZA-67">
          <mxGeometry relative="1" as="geometry" />
        </mxCell>
        <mxCell id="Wh4VKYTvQoOxj8cxY6x3-9" style="edgeStyle=orthogonalEdgeStyle;rounded=0;orthogonalLoop=1;jettySize=auto;html=1;exitX=0.25;exitY=1;exitDx=0;exitDy=0;entryX=0.75;entryY=0;entryDx=0;entryDy=0;" edge="1" parent="1" source="pfXIOTyPjtkjjVaiKZZA-18" target="pfXIOTyPjtkjjVaiKZZA-70">
          <mxGeometry relative="1" as="geometry" />
        </mxCell>
        <mxCell id="pfXIOTyPjtkjjVaiKZZA-18" value="Регистрация&amp;nbsp;" style="rounded=1;whiteSpace=wrap;html=1;" parent="1" vertex="1">
          <mxGeometry x="490" y="-2180" width="80" height="30" as="geometry" />
        </mxCell>
        <mxCell id="pfXIOTyPjtkjjVaiKZZA-20" value="почта" style="rounded=1;whiteSpace=wrap;html=1;" parent="1" vertex="1">
          <mxGeometry x="560" y="-2090" width="80" height="30" as="geometry" />
        </mxCell>
        <mxCell id="pfXIOTyPjtkjjVaiKZZA-22" value="&lt;font size=&quot;1&quot;&gt;телефон&lt;/font&gt;" style="rounded=1;whiteSpace=wrap;html=1;" parent="1" vertex="1">
          <mxGeometry x="560" y="-2040" width="80" height="30" as="geometry" />
        </mxCell>
        <mxCell id="Wh4VKYTvQoOxj8cxY6x3-37" style="edgeStyle=orthogonalEdgeStyle;rounded=0;orthogonalLoop=1;jettySize=auto;html=1;exitX=1;exitY=0.5;exitDx=0;exitDy=0;entryX=0;entryY=0.5;entryDx=0;entryDy=0;" edge="1" parent="1" source="pfXIOTyPjtkjjVaiKZZA-27" target="Wh4VKYTvQoOxj8cxY6x3-33">
          <mxGeometry relative="1" as="geometry" />
        </mxCell>
        <mxCell id="Wh4VKYTvQoOxj8cxY6x3-38" style="edgeStyle=orthogonalEdgeStyle;rounded=0;orthogonalLoop=1;jettySize=auto;html=1;exitX=1;exitY=0.5;exitDx=0;exitDy=0;entryX=0;entryY=0.5;entryDx=0;entryDy=0;" edge="1" parent="1" source="pfXIOTyPjtkjjVaiKZZA-27" target="Wh4VKYTvQoOxj8cxY6x3-34">
          <mxGeometry relative="1" as="geometry">
            <Array as="points">
              <mxPoint x="1020" y="-2105" />
              <mxPoint x="1020" y="-2065" />
            </Array>
          </mxGeometry>
        </mxCell>
        <mxCell id="Wh4VKYTvQoOxj8cxY6x3-39" style="edgeStyle=orthogonalEdgeStyle;rounded=0;orthogonalLoop=1;jettySize=auto;html=1;exitX=1;exitY=0.5;exitDx=0;exitDy=0;entryX=0;entryY=0.75;entryDx=0;entryDy=0;" edge="1" parent="1" source="pfXIOTyPjtkjjVaiKZZA-27" target="Wh4VKYTvQoOxj8cxY6x3-35">
          <mxGeometry relative="1" as="geometry">
            <Array as="points">
              <mxPoint x="1020" y="-2105" />
              <mxPoint x="1020" y="-2017" />
            </Array>
          </mxGeometry>
        </mxCell>
        <mxCell id="pfXIOTyPjtkjjVaiKZZA-27" value="доставка" style="rounded=1;whiteSpace=wrap;html=1;" parent="1" vertex="1">
          <mxGeometry x="930" y="-2120" width="80" height="30" as="geometry" />
        </mxCell>
        <mxCell id="Wh4VKYTvQoOxj8cxY6x3-48" style="edgeStyle=orthogonalEdgeStyle;rounded=0;orthogonalLoop=1;jettySize=auto;html=1;exitX=0.5;exitY=1;exitDx=0;exitDy=0;entryX=1;entryY=0.5;entryDx=0;entryDy=0;" edge="1" parent="1" source="pfXIOTyPjtkjjVaiKZZA-28" target="Wh4VKYTvQoOxj8cxY6x3-44">
          <mxGeometry relative="1" as="geometry" />
        </mxCell>
        <mxCell id="Wh4VKYTvQoOxj8cxY6x3-49" style="edgeStyle=orthogonalEdgeStyle;rounded=0;orthogonalLoop=1;jettySize=auto;html=1;exitX=0.5;exitY=1;exitDx=0;exitDy=0;entryX=1;entryY=0.5;entryDx=0;entryDy=0;" edge="1" parent="1" source="pfXIOTyPjtkjjVaiKZZA-28" target="Wh4VKYTvQoOxj8cxY6x3-45">
          <mxGeometry relative="1" as="geometry" />
        </mxCell>
        <mxCell id="Wh4VKYTvQoOxj8cxY6x3-50" style="edgeStyle=orthogonalEdgeStyle;rounded=0;orthogonalLoop=1;jettySize=auto;html=1;exitX=0.5;exitY=1;exitDx=0;exitDy=0;entryX=1;entryY=0.5;entryDx=0;entryDy=0;" edge="1" parent="1" source="pfXIOTyPjtkjjVaiKZZA-28" target="Wh4VKYTvQoOxj8cxY6x3-46">
          <mxGeometry relative="1" as="geometry" />
        </mxCell>
        <mxCell id="Wh4VKYTvQoOxj8cxY6x3-51" style="edgeStyle=orthogonalEdgeStyle;rounded=0;orthogonalLoop=1;jettySize=auto;html=1;exitX=0.5;exitY=1;exitDx=0;exitDy=0;entryX=1;entryY=0.5;entryDx=0;entryDy=0;" edge="1" parent="1" source="pfXIOTyPjtkjjVaiKZZA-28" target="Wh4VKYTvQoOxj8cxY6x3-47">
          <mxGeometry relative="1" as="geometry" />
        </mxCell>
        <mxCell id="Wh4VKYTvQoOxj8cxY6x3-53" style="edgeStyle=orthogonalEdgeStyle;rounded=0;orthogonalLoop=1;jettySize=auto;html=1;exitX=0.5;exitY=1;exitDx=0;exitDy=0;entryX=1;entryY=0.5;entryDx=0;entryDy=0;" edge="1" parent="1" source="pfXIOTyPjtkjjVaiKZZA-28" target="Wh4VKYTvQoOxj8cxY6x3-41">
          <mxGeometry relative="1" as="geometry" />
        </mxCell>
        <mxCell id="Wh4VKYTvQoOxj8cxY6x3-55" style="edgeStyle=orthogonalEdgeStyle;rounded=0;orthogonalLoop=1;jettySize=auto;html=1;exitX=0.5;exitY=1;exitDx=0;exitDy=0;entryX=1;entryY=0.5;entryDx=0;entryDy=0;" edge="1" parent="1" source="pfXIOTyPjtkjjVaiKZZA-28" target="Wh4VKYTvQoOxj8cxY6x3-54">
          <mxGeometry relative="1" as="geometry" />
        </mxCell>
        <mxCell id="pfXIOTyPjtkjjVaiKZZA-28" value="настройки" style="rounded=1;whiteSpace=wrap;html=1;" parent="1" vertex="1">
          <mxGeometry x="810" y="-2030" width="80" height="30" as="geometry" />
        </mxCell>
        <mxCell id="Wh4VKYTvQoOxj8cxY6x3-25" value="" style="edgeStyle=orthogonalEdgeStyle;rounded=0;orthogonalLoop=1;jettySize=auto;html=1;" edge="1" parent="1" source="pfXIOTyPjtkjjVaiKZZA-29" target="Wh4VKYTvQoOxj8cxY6x3-15">
          <mxGeometry relative="1" as="geometry" />
        </mxCell>
        <mxCell id="pfXIOTyPjtkjjVaiKZZA-29" value="История просмотра" style="rounded=1;whiteSpace=wrap;html=1;" parent="1" vertex="1">
          <mxGeometry x="810" y="-2170" width="80" height="30" as="geometry" />
        </mxCell>
        <mxCell id="pfXIOTyPjtkjjVaiKZZA-30" value="избранное&amp;nbsp;" style="rounded=1;whiteSpace=wrap;html=1;" parent="1" vertex="1">
          <mxGeometry x="930" y="-2170" width="80" height="30" as="geometry" />
        </mxCell>
        <mxCell id="Wh4VKYTvQoOxj8cxY6x3-30" style="edgeStyle=orthogonalEdgeStyle;rounded=0;orthogonalLoop=1;jettySize=auto;html=1;exitX=0;exitY=0.5;exitDx=0;exitDy=0;entryX=1;entryY=0.5;entryDx=0;entryDy=0;" edge="1" parent="1" source="pfXIOTyPjtkjjVaiKZZA-31" target="Wh4VKYTvQoOxj8cxY6x3-28">
          <mxGeometry relative="1" as="geometry" />
        </mxCell>
        <mxCell id="Wh4VKYTvQoOxj8cxY6x3-31" style="edgeStyle=orthogonalEdgeStyle;rounded=0;orthogonalLoop=1;jettySize=auto;html=1;exitX=0;exitY=0.5;exitDx=0;exitDy=0;entryX=1;entryY=0.5;entryDx=0;entryDy=0;" edge="1" parent="1" source="pfXIOTyPjtkjjVaiKZZA-31" target="Wh4VKYTvQoOxj8cxY6x3-29">
          <mxGeometry relative="1" as="geometry">
            <Array as="points">
              <mxPoint x="800" y="-2105" />
              <mxPoint x="800" y="-2065" />
            </Array>
          </mxGeometry>
        </mxCell>
        <mxCell id="pfXIOTyPjtkjjVaiKZZA-31" value="История покупок" style="rounded=1;whiteSpace=wrap;html=1;" parent="1" vertex="1">
          <mxGeometry x="810" y="-2120" width="80" height="30" as="geometry" />
        </mxCell>
        <mxCell id="pfXIOTyPjtkjjVaiKZZA-64" style="edgeStyle=orthogonalEdgeStyle;rounded=0;orthogonalLoop=1;jettySize=auto;html=1;exitX=0.5;exitY=1;exitDx=0;exitDy=0;entryX=0.5;entryY=0;entryDx=0;entryDy=0;" parent="1" source="pfXIOTyPjtkjjVaiKZZA-32" target="pfXIOTyPjtkjjVaiKZZA-18" edge="1">
          <mxGeometry relative="1" as="geometry" />
        </mxCell>
        <mxCell id="pfXIOTyPjtkjjVaiKZZA-32" value="нет" style="rounded=1;whiteSpace=wrap;html=1;" parent="1" vertex="1">
          <mxGeometry x="490" y="-2230" width="80" height="30" as="geometry" />
        </mxCell>
        <mxCell id="Wh4VKYTvQoOxj8cxY6x3-22" style="edgeStyle=orthogonalEdgeStyle;rounded=0;orthogonalLoop=1;jettySize=auto;html=1;exitX=0.5;exitY=1;exitDx=0;exitDy=0;entryX=0;entryY=0.5;entryDx=0;entryDy=0;" edge="1" parent="1" source="pfXIOTyPjtkjjVaiKZZA-33" target="pfXIOTyPjtkjjVaiKZZA-30">
          <mxGeometry relative="1" as="geometry" />
        </mxCell>
        <mxCell id="Wh4VKYTvQoOxj8cxY6x3-24" style="edgeStyle=orthogonalEdgeStyle;rounded=0;orthogonalLoop=1;jettySize=auto;html=1;exitX=0.5;exitY=1;exitDx=0;exitDy=0;entryX=1;entryY=0.5;entryDx=0;entryDy=0;" edge="1" parent="1" source="pfXIOTyPjtkjjVaiKZZA-33" target="pfXIOTyPjtkjjVaiKZZA-29">
          <mxGeometry relative="1" as="geometry" />
        </mxCell>
        <mxCell id="Wh4VKYTvQoOxj8cxY6x3-26" style="edgeStyle=orthogonalEdgeStyle;rounded=0;orthogonalLoop=1;jettySize=auto;html=1;exitX=0.5;exitY=1;exitDx=0;exitDy=0;entryX=1;entryY=0.5;entryDx=0;entryDy=0;" edge="1" parent="1" source="pfXIOTyPjtkjjVaiKZZA-33" target="pfXIOTyPjtkjjVaiKZZA-31">
          <mxGeometry relative="1" as="geometry" />
        </mxCell>
        <mxCell id="Wh4VKYTvQoOxj8cxY6x3-27" style="edgeStyle=orthogonalEdgeStyle;rounded=0;orthogonalLoop=1;jettySize=auto;html=1;exitX=0.5;exitY=1;exitDx=0;exitDy=0;entryX=0;entryY=0.5;entryDx=0;entryDy=0;" edge="1" parent="1" source="pfXIOTyPjtkjjVaiKZZA-33" target="pfXIOTyPjtkjjVaiKZZA-27">
          <mxGeometry relative="1" as="geometry" />
        </mxCell>
        <mxCell id="Wh4VKYTvQoOxj8cxY6x3-43" style="edgeStyle=orthogonalEdgeStyle;rounded=0;orthogonalLoop=1;jettySize=auto;html=1;exitX=0.5;exitY=1;exitDx=0;exitDy=0;entryX=1;entryY=0.5;entryDx=0;entryDy=0;" edge="1" parent="1" source="pfXIOTyPjtkjjVaiKZZA-33" target="pfXIOTyPjtkjjVaiKZZA-28">
          <mxGeometry relative="1" as="geometry" />
        </mxCell>
        <mxCell id="pfXIOTyPjtkjjVaiKZZA-33" value="есть" style="rounded=1;whiteSpace=wrap;html=1;" parent="1" vertex="1">
          <mxGeometry x="870" y="-2230" width="80" height="30" as="geometry" />
        </mxCell>
        <mxCell id="Wh4VKYTvQoOxj8cxY6x3-3" style="edgeStyle=orthogonalEdgeStyle;rounded=0;orthogonalLoop=1;jettySize=auto;html=1;exitX=0.75;exitY=1;exitDx=0;exitDy=0;entryX=1;entryY=0.5;entryDx=0;entryDy=0;" edge="1" parent="1" source="pfXIOTyPjtkjjVaiKZZA-37" target="pfXIOTyPjtkjjVaiKZZA-40">
          <mxGeometry relative="1" as="geometry" />
        </mxCell>
        <mxCell id="Wh4VKYTvQoOxj8cxY6x3-4" style="edgeStyle=orthogonalEdgeStyle;rounded=0;orthogonalLoop=1;jettySize=auto;html=1;exitX=0.75;exitY=1;exitDx=0;exitDy=0;entryX=1;entryY=0.5;entryDx=0;entryDy=0;" edge="1" parent="1" source="pfXIOTyPjtkjjVaiKZZA-37" target="pfXIOTyPjtkjjVaiKZZA-41">
          <mxGeometry relative="1" as="geometry" />
        </mxCell>
        <mxCell id="pfXIOTyPjtkjjVaiKZZA-37" value="Корзина&amp;nbsp;" style="rounded=1;whiteSpace=wrap;html=1;fillColor=#e1d5e7;strokeColor=#9673a6;" parent="1" vertex="1">
          <mxGeometry x="380" y="-2290" width="80" height="50" as="geometry" />
        </mxCell>
        <mxCell id="pfXIOTyPjtkjjVaiKZZA-52" style="edgeStyle=orthogonalEdgeStyle;rounded=0;orthogonalLoop=1;jettySize=auto;html=1;exitX=0.5;exitY=1;exitDx=0;exitDy=0;" parent="1" source="pfXIOTyPjtkjjVaiKZZA-38" target="pfXIOTyPjtkjjVaiKZZA-42" edge="1">
          <mxGeometry relative="1" as="geometry" />
        </mxCell>
        <mxCell id="pfXIOTyPjtkjjVaiKZZA-38" value="строка поиска" style="rounded=1;whiteSpace=wrap;html=1;" parent="1" vertex="1">
          <mxGeometry x="230" y="-2190" width="80" height="30" as="geometry" />
        </mxCell>
        <mxCell id="pfXIOTyPjtkjjVaiKZZA-40" value="Оформить все" style="rounded=1;whiteSpace=wrap;html=1;" parent="1" vertex="1">
          <mxGeometry x="340" y="-2210" width="80" height="30" as="geometry" />
        </mxCell>
        <mxCell id="pfXIOTyPjtkjjVaiKZZA-41" value="Удалить выбранное" style="rounded=1;whiteSpace=wrap;html=1;" parent="1" vertex="1">
          <mxGeometry x="340" y="-2160" width="80" height="30" as="geometry" />
        </mxCell>
        <mxCell id="pfXIOTyPjtkjjVaiKZZA-42" value="Перечень товара" style="rounded=1;whiteSpace=wrap;html=1;" parent="1" vertex="1">
          <mxGeometry x="230" y="-2130" width="80" height="30" as="geometry" />
        </mxCell>
        <mxCell id="pfXIOTyPjtkjjVaiKZZA-63" style="edgeStyle=orthogonalEdgeStyle;rounded=0;orthogonalLoop=1;jettySize=auto;html=1;exitX=0.75;exitY=1;exitDx=0;exitDy=0;entryX=0.355;entryY=0.017;entryDx=0;entryDy=0;entryPerimeter=0;" parent="1" source="pfXIOTyPjtkjjVaiKZZA-17" target="pfXIOTyPjtkjjVaiKZZA-33" edge="1">
          <mxGeometry relative="1" as="geometry" />
        </mxCell>
        <mxCell id="pfXIOTyPjtkjjVaiKZZA-74" style="edgeStyle=orthogonalEdgeStyle;rounded=0;orthogonalLoop=1;jettySize=auto;html=1;exitX=0;exitY=1;exitDx=0;exitDy=0;entryX=0;entryY=0.5;entryDx=0;entryDy=0;" parent="1" source="pfXIOTyPjtkjjVaiKZZA-67" target="pfXIOTyPjtkjjVaiKZZA-20" edge="1">
          <mxGeometry relative="1" as="geometry" />
        </mxCell>
        <mxCell id="pfXIOTyPjtkjjVaiKZZA-75" style="edgeStyle=orthogonalEdgeStyle;rounded=0;orthogonalLoop=1;jettySize=auto;html=1;exitX=0;exitY=1;exitDx=0;exitDy=0;entryX=0;entryY=0.5;entryDx=0;entryDy=0;" parent="1" source="pfXIOTyPjtkjjVaiKZZA-67" target="pfXIOTyPjtkjjVaiKZZA-22" edge="1">
          <mxGeometry relative="1" as="geometry" />
        </mxCell>
        <mxCell id="pfXIOTyPjtkjjVaiKZZA-67" value="Да" style="rounded=1;whiteSpace=wrap;html=1;" parent="1" vertex="1">
          <mxGeometry x="540" y="-2130" width="50" height="20" as="geometry" />
        </mxCell>
        <mxCell id="Wh4VKYTvQoOxj8cxY6x3-12" style="edgeStyle=orthogonalEdgeStyle;rounded=0;orthogonalLoop=1;jettySize=auto;html=1;entryX=0.5;entryY=1;entryDx=0;entryDy=0;exitX=0.5;exitY=1;exitDx=0;exitDy=0;" edge="1" parent="1" source="pfXIOTyPjtkjjVaiKZZA-70" target="pfXIOTyPjtkjjVaiKZZA-2">
          <mxGeometry relative="1" as="geometry">
            <mxPoint x="146.69999999999993" y="-2194.88" as="targetPoint" />
            <mxPoint x="500" y="-2070" as="sourcePoint" />
            <Array as="points">
              <mxPoint x="495" y="-2060" />
              <mxPoint x="160" y="-2060" />
            </Array>
          </mxGeometry>
        </mxCell>
        <mxCell id="pfXIOTyPjtkjjVaiKZZA-70" value="Нет" style="rounded=1;whiteSpace=wrap;html=1;" parent="1" vertex="1">
          <mxGeometry x="470" y="-2130" width="50" height="20" as="geometry" />
        </mxCell>
        <mxCell id="pfXIOTyPjtkjjVaiKZZA-87" value="Сылки на соц сети" style="rounded=1;whiteSpace=wrap;html=1;" parent="1" vertex="1">
          <mxGeometry x="30" y="-2210" width="70" height="30" as="geometry" />
        </mxCell>
        <mxCell id="Wh4VKYTvQoOxj8cxY6x3-15" value="Последние 100 товаров" style="rounded=1;whiteSpace=wrap;html=1;" vertex="1" parent="1">
          <mxGeometry x="700" y="-2171.25" width="80" height="32.5" as="geometry" />
        </mxCell>
        <mxCell id="Wh4VKYTvQoOxj8cxY6x3-28" value="Фильтр по новизне" style="rounded=1;whiteSpace=wrap;html=1;" vertex="1" parent="1">
          <mxGeometry x="700" y="-2120" width="80" height="30" as="geometry" />
        </mxCell>
        <mxCell id="Wh4VKYTvQoOxj8cxY6x3-29" value="Поиск по названию" style="rounded=1;whiteSpace=wrap;html=1;" vertex="1" parent="1">
          <mxGeometry x="700" y="-2080" width="80" height="30" as="geometry" />
        </mxCell>
        <mxCell id="Wh4VKYTvQoOxj8cxY6x3-33" value="Адрес ПВЗ" style="rounded=1;whiteSpace=wrap;html=1;" vertex="1" parent="1">
          <mxGeometry x="1040" y="-2120" width="80" height="30" as="geometry" />
        </mxCell>
        <mxCell id="Wh4VKYTvQoOxj8cxY6x3-34" value="Самовывоз" style="rounded=1;whiteSpace=wrap;html=1;" vertex="1" parent="1">
          <mxGeometry x="1040" y="-2080" width="80" height="30" as="geometry" />
        </mxCell>
        <mxCell id="Wh4VKYTvQoOxj8cxY6x3-35" value="Карточки товара" style="rounded=1;whiteSpace=wrap;html=1;" vertex="1" parent="1">
          <mxGeometry x="1040" y="-2040" width="80" height="30" as="geometry" />
        </mxCell>
        <mxCell id="Wh4VKYTvQoOxj8cxY6x3-41" value="Документация" style="rounded=1;whiteSpace=wrap;html=1;" vertex="1" parent="1">
          <mxGeometry x="720" y="-1790" width="80" height="30" as="geometry" />
        </mxCell>
        <mxCell id="Wh4VKYTvQoOxj8cxY6x3-44" value="Смена темы" style="rounded=1;whiteSpace=wrap;html=1;" vertex="1" parent="1">
          <mxGeometry x="720" y="-1990" width="80" height="30" as="geometry" />
        </mxCell>
        <mxCell id="Wh4VKYTvQoOxj8cxY6x3-45" value="Реквизиты" style="rounded=1;whiteSpace=wrap;html=1;" vertex="1" parent="1">
          <mxGeometry x="720" y="-1940" width="80" height="30" as="geometry" />
        </mxCell>
        <mxCell id="Wh4VKYTvQoOxj8cxY6x3-46" value="Настройки аккаунта" style="rounded=1;whiteSpace=wrap;html=1;" vertex="1" parent="1">
          <mxGeometry x="720" y="-1890" width="80" height="30" as="geometry" />
        </mxCell>
        <mxCell id="Wh4VKYTvQoOxj8cxY6x3-47" value="Адрес доставки" style="rounded=1;whiteSpace=wrap;html=1;" vertex="1" parent="1">
          <mxGeometry x="720" y="-1840" width="80" height="30" as="geometry" />
        </mxCell>
        <mxCell id="Wh4VKYTvQoOxj8cxY6x3-54" value="Версия приложения" style="rounded=1;whiteSpace=wrap;html=1;" vertex="1" parent="1">
          <mxGeometry x="720" y="-1740" width="80" height="30" as="geometry" />
        </mxCell>
      </root>
    </mxGraphModel>
  </diagram>
</mxfile>
